# xmcd CD database file
#
# Track frame offsets:
#	150
#	14007
#	26398
#	40029
#	53884
#	67374
#	79743
#	92799
#	104849
#	118979
#	133327
#	147059
#	160384
#	174051
#	187591
#	201470
#
# Disc length: 2893 seconds
#
# Revision: 0
# Processed by: cddbd v1.5PL3 Copyright (c) Steve Scherf et al.
# Submitted via: CDex 1.51
#
DISCID=e60b4b10
DTITLE=Louis Armstrong - The Hot Fives And The Hot Sevens Vol 2
DYEAR=1900
DGENRE=Jazz
TTITLE0=Lonesome Blues
TTITLE1=Sweet Little Papa
TTITLE2=Jazz Lips
TTITLE3=Skid-Dat-De-Dat
TTITLE4=Big Butter And Egg Mann
TTITLE5=Sunset Cafe Stomp
TTITLE6=You Made Me Love You
TTITLE7=Irish Black Bottom
TTITLE8=Willie The Weeper
TTITLE9=Wild Man Blues
TTITLE10=Alligator Crawl
TTITLE11=Potato Head Blues
TTITLE12=Melancholy
TTITLE13=Weary Blues
TTITLE14=Twelfth Street Rag
TTITLE15=Keyhole Blues
EXTD=
EXTT0=
EXTT1=
EXTT2=
EXTT3=
EXTT4=
EXTT5=
EXTT6=
EXTT7=
EXTT8=
EXTT9=
EXTT10=
EXTT11=
EXTT12=
EXTT13=
EXTT14=
EXTT15=
PLAYORDER=
